<svg xmlns="http://www.w3.org/2000/svg" width="1957.958" height="1122.855" viewBox="0 0 1957.958 1122.855">
  <g id="Group_6" data-name="Group 6" transform="translate(201 66.855)">
    <path id="Path_1" data-name="Path 1" d="M272.01,476.648c173.495-1.563,1112.337,0,1112.337,0h567.523s39.723,158.294,0,207.782c0,172.429-37.849,392.9-443.522,565.386-424.2,180.365-1127.094,304.633-1310.013,304.633-174.7,0-181.625-234.269-181.625-234.269V737.15c0-165.716-5.143-257.471-5.143-257.471S89.221,478.295,272.01,476.648Z" transform="translate(-212.568 -522.953)" fill="#010168"/>
    <path id="Path_3" data-name="Path 3" d="M157.671-52.152c53.168,0,192.386,73.384,192.386,125.967S256.447,223.161,203.279,223.161s-165.4-79.735-165.4-132.319S104.5-52.152,157.671-52.152Z" transform="translate(-28 832.839)" fill="rgba(52,52,197,0.65)" opacity="0.1"/>
    <path id="Path_4" data-name="Path 4" d="M157.671-52.152c53.168,0,192.386,73.384,192.386,125.967S256.447,223.161,203.279,223.161,0,147.794,0,95.21,104.5-52.152,157.671-52.152Z" transform="translate(1067 494.839)" fill="rgba(52,52,197,0.65)" opacity="0.1"/>
    <path id="Path_5" data-name="Path 5" d="M157.671-52.152c53.168,0,192.386,73.384,192.386,125.967S256.447,223.161,203.279,223.161,0,147.794,0,95.21,104.5-52.152,157.671-52.152Z" transform="translate(689.971 163.755)" fill="rgba(52,52,197,0.65)" opacity="0.1"/>
    <path id="Path_6" data-name="Path 6" d="M157.671-52.152c53.168,0,192.386,73.384,192.386,125.967S256.447,223.161,203.279,223.161,71,156.74,71,104.156,104.5-52.152,157.671-52.152Z" transform="translate(-89.029 -14.703)" fill="rgba(52,52,197,0.65)" opacity="0.1"/>
  </g>
</svg>
